<?xml version="1.0" encoding="UTF-8"?>
<svg width="1200" height="760" viewBox="0 0 1200 760" fill="none" xmlns="http://www.w3.org/2000/svg" role="img" aria-label="Hawaii islands map based on Natural Earth public domain data">
  <defs>
    <linearGradient id="ocean" x1="0" y1="0" x2="1200" y2="760" gradientUnits="userSpaceOnUse">
      <stop offset="0" stop-color="#0A3A56"/>
      <stop offset="1" stop-color="#073049"/>
    </linearGradient>
    <filter id="blueGlow" x="-20%" y="-20%" width="140%" height="140%" color-interpolation-filters="sRGB">
      <feDropShadow dx="0" dy="0" stdDeviation="8" flood-color="#0099CC" flood-opacity="0.35"/>
    </filter>
    <filter id="orangeGlow" x="-30%" y="-30%" width="160%" height="160%" color-interpolation-filters="sRGB">
      <feDropShadow dx="0" dy="0" stdDeviation="12" flood-color="#FF6600" flood-opacity="0.18"/>
    </filter>
  </defs>
  <rect width="1200" height="760" rx="32" fill="url(#ocean)"/>
  <g opacity="0.14" stroke="#58B7E0" stroke-width="1">
    <line x1="0" y1="190" x2="1200" y2="190"/>
    <line x1="0" y1="380" x2="1200" y2="380"/>
    <line x1="0" y1="570" x2="1200" y2="570"/>
    <line x1="240" y1="0" x2="240" y2="760"/>
    <line x1="480" y1="0" x2="480" y2="760"/>
    <line x1="720" y1="0" x2="720" y2="760"/>
    <line x1="960" y1="0" x2="960" y2="760"/>
  </g>
  <g filter="url(#orangeGlow)">
    <g filter="url(#blueGlow)" fill="#A6E8FF" fill-opacity="0.96" stroke="#E8FAFF" stroke-opacity="0.92" stroke-width="2.4">
      <path d="M1058.4,554.9 L1067.6,558.7 L1071.4,561.8 L1073.3,565.4 L1072.8,570.1 L1070.6,572.8 L1062.7,581.7 L1055.0,584.4 L1044.0,594.5 L1036.6,596.6 L1036.3,598.6 L1030.0,600.0 L1024.7,603.8 L1014.3,606.7 L1005.6,609.1 L998.2,607.4 L994.0,607.3 L990.2,608.4 L986.1,610.8 L980.7,614.5 L977.5,618.2 L973.9,618.7 L971.2,619.9 L967.3,622.3 L964.8,624.1 L956.0,628.8 L953.3,629.7 L945.8,636.5 L944.5,639.4 L944.7,645.7 L941.5,649.0 L936.0,654.1 L933.2,661.4 L930.7,664.1 L927.5,666.5 L923.4,670.0 L921.8,669.1 L922.0,665.3 L918.3,662.5 L911.2,659.0 L902.9,654.2 L898.6,651.3 L891.3,649.5 L887.9,648.6 L886.9,645.4 L885.7,642.2 L883.5,641.5 L882.0,636.9 L880.7,629.5 L882.7,620.7 L886.7,595.4 L886.3,591.0 L884.0,587.0 L881.9,581.5 L879.0,573.2 L877.8,569.8 L876.0,567.7 L874.3,564.1 L874.7,560.3 L872.7,556.7 L871.7,552.7 L869.8,547.8 L866.8,543.5 L864.1,541.6 L860.4,537.3 L856.2,526.3 L858.0,521.3 L860.0,517.2 L863.7,514.1 L867.3,511.8 L868.9,510.0 L869.8,506.7 L872.3,504.8 L879.6,502.3 L883.1,496.5 L884.9,494.5 L888.8,487.9 L892.7,483.7 L895.4,483.7 L896.6,478.2 L897.4,475.9 L896.1,472.6 L893.2,469.9 L887.2,461.2 L884.7,453.5 L884.3,447.4 L884.3,441.7 L887.5,435.5 L889.8,433.6 L896.1,433.5 L907.5,436.0 L912.4,437.0 L913.3,437.8 L913.9,439.1 L914.1,440.8 L916.9,445.3 L923.6,447.8 L928.0,450.2 L931.1,453.6 L935.3,455.4 L938.8,458.0 L942.8,457.1 L949.1,457.4 L955.4,459.7 L967.6,463.7 L983.0,471.3 L1003.5,483.7 L1011.7,488.7 L1020.7,497.4 L1025.7,503.8 L1025.9,510.6 L1025.6,519.7 L1026.1,526.9 L1030.9,526.7 L1037.7,523.7 L1042.7,527.0 L1045.0,530.7 L1044.4,538.2 L1046.7,542.8 L1049.7,547.1 L1058.4,554.9 Z"/>
      <path d="M768.9,375.3 L773.2,380.0 L770.9,385.1 L773.7,386.8 L771.9,390.0 L766.9,390.1 L762.3,389.3 L758.9,389.9 L754.1,390.9 L748.4,391.5 L744.7,387.9 L746.8,385.3 L750.5,382.3 L755.4,379.2 L760.7,376.5 L765.2,374.9 L768.9,375.3 Z"/>
      <path d="M718.9,326.7 L721.7,329.5 L724.5,332.8 L726.3,335.7 L726.7,337.9 L725.7,340.9 L721.9,346.4 L714.0,349.8 L707.5,351.4 L699.1,351.9 L695.6,347.1 L694.8,343.1 L694.5,339.8 L694.5,335.7 L693.9,332.0 L690.9,330.3 L683.7,327.6 L681.5,324.3 L682.9,320.7 L687.0,318.7 L694.2,317.9 L711.2,320.2 L718.9,326.7 Z"/>
      <path d="M866.4,340.0 L870.3,347.5 L869.4,354.4 L866.2,360.0 L861.9,361.1 L858.3,366.0 L853.6,366.1 L844.2,370.7 L837.9,370.5 L834.4,370.2 L831.2,370.4 L822.5,374.1 L817.1,376.9 L814.0,378.2 L809.8,377.1 L808.2,377.0 L805.3,376.2 L803.1,376.9 L795.7,377.1 L790.9,372.8 L790.3,371.0 L788.0,368.7 L789.5,367.5 L789.6,364.4 L788.2,352.9 L786.9,349.7 L786.9,346.2 L785.8,343.3 L785.1,342.8 L783.9,341.7 L782.1,340.7 L779.3,340.7 L776.8,341.8 L775.9,344.2 L773.7,344.6 L771.1,343.2 L768.7,341.5 L764.9,340.9 L761.2,338.6 L758.7,338.8 L756.4,335.9 L752.3,331.8 L747.4,325.8 L747.2,322.0 L745.5,319.9 L746.1,316.4 L747.2,311.5 L748.8,307.3 L750.6,304.6 L752.8,304.4 L754.3,302.9 L754.4,301.5 L756.0,300.5 L757.6,300.7 L759.5,300.9 L760.9,300.5 L761.5,299.7 L762.6,299.5 L764.0,300.4 L765.4,302.1 L767.2,302.4 L769.9,303.8 L772.2,304.6 L773.1,306.9 L775.1,307.4 L775.6,309.8 L775.6,311.8 L778.0,313.9 L779.6,316.1 L780.8,318.9 L782.8,321.9 L785.9,321.7 L787.8,319.5 L791.2,319.6 L793.8,319.1 L798.8,318.9 L800.8,318.5 L806.4,314.7 L809.1,313.7 L811.8,313.4 L814.7,313.5 L817.6,313.9 L819.9,314.8 L820.7,314.9 L821.3,315.0 L821.8,315.4 L822.2,316.1 L824.4,315.4 L827.2,317.1 L828.1,319.1 L829.2,320.1 L830.6,321.5 L832.4,323.5 L835.5,325.5 L837.8,327.6 L838.0,329.1 L840.1,329.3 L840.9,329.3 L841.6,328.4 L843.9,330.1 L844.8,332.4 L845.9,333.8 L851.9,334.6 L857.8,337.3 L866.4,340.0 Z"/>
      <path d="M736.2,275.4 L738.0,275.1 L739.0,275.8 L738.5,276.6 L739.7,277.2 L742.5,277.1 L743.8,278.0 L740.4,283.7 L735.1,288.6 L728.5,292.0 L722.0,294.6 L715.2,295.9 L708.4,295.3 L701.7,294.0 L688.2,290.6 L679.9,287.9 L668.1,288.8 L659.9,289.2 L653.7,290.1 L648.8,289.8 L644.9,290.0 L641.5,288.7 L639.6,286.1 L639.5,282.9 L640.9,280.2 L642.8,278.0 L645.9,276.9 L648.8,273.8 L649.5,270.4 L647.4,267.8 L647.3,266.6 L649.2,266.6 L651.9,267.1 L656.0,266.8 L658.2,267.4 L659.6,269.5 L662.3,269.5 L678.7,271.8 L687.6,273.1 L694.3,273.4 L695.7,271.4 L695.9,269.8 L696.8,268.4 L698.5,268.1 L700.8,271.0 L701.6,274.2 L705.5,275.4 L710.4,276.5 L719.2,276.2 L723.1,275.7 L725.5,274.9 L727.3,274.3 L728.8,274.6 L732.0,274.4 L734.4,275.1 L736.2,275.4 Z"/>
      <path d="M569.4,243.9 L571.2,246.6 L575.0,249.0 L578.7,250.8 L579.8,251.8 L577.7,254.0 L573.4,257.7 L571.8,259.5 L569.9,260.0 L569.2,259.0 L569.4,257.3 L567.9,256.1 L563.2,257.2 L559.5,257.7 L556.3,259.1 L554.0,260.9 L551.3,260.9 L550.0,260.3 L549.2,258.8 L547.8,256.9 L542.1,254.6 L539.2,253.3 L537.3,250.7 L536.6,249.1 L536.6,247.4 L535.4,248.0 L533.1,250.1 L534.8,252.0 L527.5,252.5 L527.7,251.7 L528.7,251.1 L527.3,250.0 L524.6,250.1 L524.5,248.4 L524.0,247.0 L524.4,245.8 L523.9,244.6 L525.8,243.8 L527.5,243.0 L529.4,242.0 L530.2,240.5 L528.1,238.9 L526.3,238.2 L525.1,237.5 L524.3,238.2 L523.7,240.4 L522.2,239.7 L520.8,238.2 L519.8,237.1 L519.9,239.4 L521.0,242.1 L520.1,242.7 L516.3,239.6 L514.8,238.5 L516.0,241.3 L518.9,244.1 L521.0,245.8 L522.6,247.1 L521.7,249.7 L518.5,251.0 L514.4,251.7 L508.0,253.0 L504.7,253.3 L501.9,254.1 L501.1,253.8 L500.3,253.1 L498.2,252.1 L496.7,246.2 L494.8,241.5 L492.5,238.8 L490.9,236.5 L487.6,234.9 L486.8,230.3 L485.7,227.8 L482.6,225.3 L480.7,224.1 L478.7,221.1 L478.6,217.5 L478.4,212.4 L477.2,210.9 L469.7,205.0 L470.8,204.4 L477.1,203.3 L484.5,202.9 L489.4,203.2 L492.3,203.1 L494.5,202.6 L497.2,203.2 L497.8,201.0 L498.6,200.0 L501.8,198.3 L505.5,195.7 L506.8,194.5 L506.6,193.5 L507.8,191.6 L509.5,188.3 L512.1,186.2 L515.8,183.0 L521.3,181.6 L523.6,181.7 L524.9,182.4 L525.8,183.5 L527.0,184.9 L529.8,187.1 L529.9,189.0 L531.4,189.7 L531.5,191.2 L533.0,192.8 L532.2,195.9 L534.5,198.9 L536.8,201.0 L537.9,204.0 L539.8,205.0 L540.3,206.0 L540.7,208.0 L542.1,207.7 L543.8,208.3 L545.1,209.8 L546.8,212.2 L546.8,214.9 L546.8,216.2 L545.4,216.1 L544.5,217.2 L544.9,220.1 L545.2,222.0 L545.8,224.9 L547.4,225.4 L549.6,226.2 L551.2,228.2 L552.5,230.5 L555.2,231.3 L555.5,232.6 L557.3,233.2 L558.4,232.0 L560.1,229.8 L557.5,228.1 L557.8,226.1 L559.7,225.3 L563.9,225.8 L566.1,225.3 L566.6,226.6 L564.0,229.0 L563.5,232.1 L563.8,234.6 L566.7,236.3 L568.9,238.4 L569.6,239.9 L568.8,241.9 L569.4,243.9 Z"/>
      <path d="M150.1,131.0 L153.2,129.7 L156.1,129.8 L159.4,130.9 L160.9,134.0 L159.5,135.6 L157.3,138.1 L156.0,141.8 L157.3,146.6 L155.0,149.6 L152.0,150.8 L149.4,152.2 L146.1,153.2 L142.3,155.5 L140.0,157.4 L138.6,160.0 L136.6,165.1 L135.4,168.7 L133.1,169.3 L130.8,167.7 L128.9,167.1 L126.7,161.0 L127.1,157.0 L129.1,152.9 L135.9,146.3 L141.3,142.4 L148.4,138.6 L149.5,136.3 L150.3,134.2 L150.1,131.0 Z"/>
      <path d="M291.6,104.7 L293.1,105.5 L293.1,107.4 L292.8,112.3 L291.1,114.4 L288.6,121.0 L286.1,122.4 L285.8,127.3 L286.3,130.3 L286.5,133.7 L286.3,136.9 L285.9,138.3 L283.5,138.3 L281.5,139.2 L282.8,140.5 L283.5,142.1 L282.5,143.2 L280.4,143.1 L277.5,145.4 L276.2,147.5 L274.7,148.8 L271.8,150.5 L271.6,151.8 L269.7,152.0 L268.5,153.0 L267.9,153.9 L260.1,151.3 L255.4,150.8 L251.8,150.9 L245.2,149.7 L242.7,149.4 L241.2,148.1 L240.5,148.4 L240.2,149.5 L238.7,149.9 L237.8,148.5 L235.6,147.6 L233.6,146.1 L232.3,144.4 L231.6,142.9 L230.8,141.5 L228.8,141.0 L228.1,139.6 L226.3,138.8 L222.8,138.3 L220.1,137.3 L218.0,136.3 L214.6,135.7 L211.7,134.8 L210.2,131.9 L209.7,130.1 L208.2,129.4 L207.0,127.7 L207.0,125.2 L207.2,123.2 L207.3,121.0 L207.1,119.5 L208.8,118.9 L213.5,113.9 L215.9,110.9 L216.2,109.3 L216.2,107.7 L216.5,106.5 L217.6,106.0 L218.1,105.5 L219.3,103.6 L223.2,102.5 L227.7,101.5 L232.7,98.7 L235.9,96.1 L239.9,94.3 L241.4,92.5 L243.7,91.7 L245.5,91.7 L246.8,90.4 L248.6,90.8 L249.8,91.8 L250.4,93.0 L251.8,93.1 L254.1,93.8 L255.6,94.8 L257.1,94.6 L256.6,93.4 L257.1,92.1 L260.2,90.9 L263.5,91.4 L267.4,91.4 L269.4,92.6 L271.1,92.3 L273.1,91.2 L274.5,90.0 L276.5,91.2 L279.0,92.3 L281.8,92.2 L285.1,93.9 L286.4,96.5 L288.6,98.7 L289.8,98.9 L290.5,101.2 L291.0,103.0 L291.6,104.7 L291.6,104.7 Z"/>
    </g>
  </g>
</svg>
