<svg width="1200" height="760" viewBox="0 0 1200 760" fill="none" xmlns="http://www.w3.org/2000/svg" role="img" aria-label="Minimalist Hawaii islands map">
  <defs>
    <linearGradient id="ocean" x1="0" y1="0" x2="1200" y2="760" gradientUnits="userSpaceOnUse">
      <stop offset="0" stop-color="#0A3A56"/>
      <stop offset="1" stop-color="#073049"/>
    </linearGradient>
    <filter id="softShadow" x="-20%" y="-20%" width="140%" height="140%" color-interpolation-filters="sRGB">
      <feDropShadow dx="0" dy="10" stdDeviation="12" flood-color="#02131D" flood-opacity="0.4"/>
    </filter>
  </defs>

  <rect width="1200" height="760" rx="36" fill="url(#ocean)"/>

  <g opacity="0.15" stroke="#58B7E0" stroke-width="1">
    <line x1="0" y1="190" x2="1200" y2="190"/>
    <line x1="0" y1="380" x2="1200" y2="380"/>
    <line x1="0" y1="570" x2="1200" y2="570"/>
    <line x1="240" y1="0" x2="240" y2="760"/>
    <line x1="480" y1="0" x2="480" y2="760"/>
    <line x1="720" y1="0" x2="720" y2="760"/>
    <line x1="960" y1="0" x2="960" y2="760"/>
  </g>

  <g filter="url(#softShadow)" fill="#86DBFF" fill-opacity="0.92" stroke="#D8F5FF" stroke-opacity="0.8" stroke-width="4">
    <path d="M107 146C121 132 151 136 165 162C172 176 166 201 146 209C124 217 101 202 96 182C91 166 96 156 107 146Z"/>
    <path d="M219 116C238 103 279 106 300 132C317 152 315 186 290 201C266 215 233 206 217 184C202 164 203 130 219 116Z"/>
    <path d="M507 230C531 218 580 221 618 237C632 243 636 260 623 271C610 282 582 286 542 284C505 282 483 272 481 255C480 245 489 238 507 230Z"/>
    <path d="M560 300C581 291 618 293 632 311C640 324 635 342 617 349C597 356 568 354 552 342C541 333 545 307 560 300Z"/>
    <path d="M628 322C642 312 664 317 667 336C670 354 656 369 634 371C617 373 603 360 605 343C607 333 615 327 628 322Z"/>
    <path d="M684 291C701 283 729 284 751 295C763 301 771 314 768 328C765 345 748 355 723 359C701 362 682 357 675 344C668 331 670 298 684 291Z"/>
    <path d="M803 386C831 367 888 373 937 415C973 445 987 493 969 530C949 567 907 584 855 576C804 568 768 533 758 484C750 446 768 409 803 386Z"/>
  </g>

  <g fill="#E8FBFF" font-family="Outfit, sans-serif" font-size="24" font-weight="700" letter-spacing="1.2">
    <text x="250" y="167">KAUAI</text>
    <text x="384" y="180">OAHU</text>
    <text x="557" y="262" font-size="18">MOLOKAI</text>
    <text x="579" y="338" font-size="17">LANAI</text>
    <text x="698" y="341">MAUI</text>
    <text x="836" y="487" font-size="28">BIG ISLAND</text>
  </g>
</svg>
